
<svg width="16" height="14" viewBox="0 0 18 16" fill="none" xmlns="http://www.w3.org/2000/svg">
<path d="M11.008 12.1844V15L7.304 12.1844H1V1H17V12.1844H11.008Z" stroke="#767676" stroke-width="1.5" stroke-miterlimit="10" stroke-linecap="round" stroke-linejoin="round"/>
<path d="M4.04004 6.47547C4.04004 7.00435 4.46404 7.43213 4.99204 7.43213C5.52004 7.43213 5.94404 7.00435 5.94404 6.47547C5.94404 5.94658 5.52004 5.5188 4.99204 5.5188C4.46404 5.5188 4.04004 5.94658 4.04004 6.47547Z" fill="#767676"/>
<path d="M8.04785 6.47547C8.04785 7.00435 8.47185 7.43213 8.99985 7.43213C9.52785 7.43213 9.95185 7.00435 9.95185 6.47547C9.95185 5.94658 9.52785 5.5188 8.99985 5.5188C8.47185 5.5188 8.04785 5.94658 8.04785 6.47547Z" fill="#767676"/>
<path d="M12.064 6.47547C12.064 7.00435 12.488 7.43213 13.016 7.43213C13.544 7.43213 13.968 7.00435 13.968 6.47547C13.968 5.94658 13.544 5.5188 13.016 5.5188C12.488 5.5188 12.064 5.94658 12.064 6.47547Z" fill="#767676"/>
</svg>
