<svg width="98" height="96" viewBox="0 0 98 96" fill="none" xmlns="http://www.w3.org/2000/svg">
<path d="M64.3446 0C70.3099 0 75.1453 9.07102 75.1453 16.7556C75.1453 24.4402 70.3099 30.6716 64.3446 30.6716C58.3793 30.6716 53.5438 24.4414 53.5438 16.7556C53.5438 9.06987 58.3793 0 64.3446 0Z" fill="#FA3C89"/>
<path d="M33.6557 0C39.621 0 44.4565 9.07102 44.4565 16.7556C44.4565 24.4402 39.621 30.6716 33.6557 30.6716C27.6904 30.6716 22.855 24.4414 22.855 16.7556C22.855 9.06987 27.6904 0 33.6557 0Z" fill="#FA3C89"/>
<path d="M1.30866 40.5307C-1.22435 34.191 -0.115225 25.0716 4.94157 23.0525C9.99836 21.0334 17.0878 26.8786 19.6208 33.2183C22.1538 39.558 20.1085 46.3345 15.0517 48.3536C9.9949 50.3727 3.84166 46.8704 1.30866 40.5307V40.5307Z" fill="#FA3C89"/>
<path d="M96.6914 40.5307C94.1583 46.8704 88.0051 50.3727 82.9483 48.3536C77.8915 46.3345 75.8451 39.558 78.3792 33.2183C80.9122 26.8786 88.0016 21.0334 93.0584 23.0525C98.1152 25.0716 99.2244 34.191 96.6914 40.5307V40.5307Z" fill="#FA3C89"/>
<path d="M87.6424 75.5499C86.4836 70.3581 83.7224 65.6756 80.6682 61.3355C73.5119 51.1685 62.0494 40.9023 49.0004 40.9023C36.0057 40.9023 24.4912 51.1662 17.3326 61.3355C14.2774 65.6756 11.5161 70.357 10.3585 75.5499C9.19981 80.7429 9.83393 86.549 13.0518 90.767C16.2696 94.9851 22.3652 97.0906 27.1315 94.8076C29.9654 93.45 32.2586 90.7129 35.3854 90.449C38.255 90.207 40.7915 92.1396 43.1862 93.7554C44.9167 94.9228 47.0024 95.9854 49.0004 95.9992C50.9985 95.9854 53.0841 94.9228 54.8147 93.7554C57.2082 92.1396 59.7447 90.2081 62.6155 90.449C65.7423 90.7117 68.0355 93.45 70.8694 94.8076C75.6356 97.0906 81.7312 94.9851 84.9491 90.767C88.1669 86.549 88.8011 80.7429 87.6424 75.5499Z" fill="#FA3C89"/>
<path d="M38.76 77.232C44.232 74.592 46.872 70.512 46.872 65.232C46.872 60.528 45 57.792 41.496 57.792C38.904 57.792 37.08 59.568 37.08 62.4C37.08 64.992 39.048 66.624 41.496 66.624C41.64 66.624 41.832 66.624 41.976 66.576C41.928 69.84 40.296 71.904 36.936 73.536L38.76 77.232ZM52.2 77.232C57.672 74.592 60.312 70.512 60.312 65.232C60.312 60.528 58.44 57.792 54.936 57.792C52.344 57.792 50.52 59.568 50.52 62.4C50.52 64.992 52.488 66.624 54.936 66.624C55.08 66.624 55.272 66.624 55.416 66.576C55.368 69.84 53.736 71.904 50.376 73.536L52.2 77.232Z" fill="white"/>
</svg>