<svg width="74" height="32" viewBox="0 0 74 32" fill="none" xmlns="http://www.w3.org/2000/svg">
<path d="M52.0908 19.5977H50.0693V5.78418H52.0908V19.5977ZM34.751 15.2852C35.5745 15.2852 36.2184 15.2814 36.6826 15.2739V9.19824H35.1104V7.44629H44.5215V9.19824H42.8818V15.0381C43.623 14.9782 44.3118 14.9108 44.9482 14.8359L45.0381 16.4307C43.623 16.6852 42.0695 16.8499 40.3774 16.9248C38.6854 16.9997 36.8848 17.0371 34.9756 17.0371L34.751 15.2852ZM37.4014 24.1572C38.6592 24 39.8047 23.6855 40.8379 23.2139C41.8711 22.7422 42.6872 22.1619 43.2861 21.4731C43.8851 20.7769 44.1846 20.0394 44.1846 19.2607V18.6543H46.3184V19.2607C46.3184 20.0394 46.6216 20.7769 47.228 21.4731C47.8345 22.1619 48.658 22.7422 49.6987 23.2139C50.7469 23.6855 51.9036 24 53.1689 24.1572L52.3604 25.8193C50.7731 25.5947 49.3468 25.1343 48.0815 24.438C46.8237 23.7492 45.8841 22.8994 45.2627 21.8887C44.6413 22.8994 43.7017 23.7492 42.4438 24.438C41.186 25.1343 39.7598 25.5947 38.165 25.8193L37.4014 24.1572ZM38.6592 15.2402C39.7074 15.2103 40.471 15.1841 40.9502 15.1616V9.19824H38.6592V15.2402ZM43.8701 11.2871H46.2959V6.21094H48.2949V17.7559H46.2959V13.0166H43.8701V11.2871ZM73.1592 23.3936H54.7412V21.6191H62.8496V16.9697H56.8525V7.40137H70.958V16.9697H64.9609V21.6191H73.1592V23.3936ZM68.8691 15.2852V9.1084H58.9189V15.2852H68.8691Z" fill="white"/>
<path d="M17.071 3C18.6536 3 19.9365 5.4066 19.9365 7.44537C19.9365 9.48415 18.6536 11.1374 17.071 11.1374C15.4884 11.1374 14.2055 9.48445 14.2055 7.44537C14.2055 5.40629 15.4884 3 17.071 3Z" fill="white"/>
<path d="M8.92906 3C10.5117 3 11.7946 5.4066 11.7946 7.44537C11.7946 9.48415 10.5117 11.1374 8.92906 11.1374C7.34642 11.1374 6.06355 9.48445 6.06355 7.44537C6.06355 5.40629 7.34642 3 8.92906 3Z" fill="white"/>
<path d="M0.347194 13.753C-0.324828 12.0711 -0.0305699 9.65164 1.31103 9.11596C2.65263 8.58028 4.53349 10.1311 5.20552 11.813C5.87754 13.495 5.33491 15.2928 3.99331 15.8285C2.65171 16.3642 1.01922 15.435 0.347194 13.753Z" fill="white"/>
<path d="M25.6528 13.753C24.9808 15.435 23.3483 16.3642 22.0067 15.8285C20.6651 15.2928 20.1222 13.495 20.7945 11.813C21.4665 10.1311 23.3474 8.58028 24.689 9.11596C26.0306 9.65164 26.3248 12.0711 25.6528 13.753Z" fill="white"/>
<path d="M23.252 23.0439C22.9446 21.6664 22.212 20.4242 21.4018 19.2727C19.5031 16.5753 16.4621 13.8516 13.0001 13.8516C9.55251 13.8516 6.49766 16.5747 4.59844 19.2727C3.78786 20.4242 3.05527 21.6661 2.74816 23.0439C2.44075 24.4216 2.60899 25.962 3.4627 27.0811C4.31642 28.2001 5.93362 28.7587 7.19813 28.153C7.94999 27.7928 8.55839 27.0667 9.38794 26.9967C10.1493 26.9325 10.8222 27.4452 11.4575 27.8739C11.9167 28.1836 12.47 28.4655 13.0001 28.4692C13.5302 28.4655 14.0835 28.1836 14.5427 27.8739C15.1777 27.4452 15.8506 26.9328 16.6123 26.9967C17.4418 27.0664 18.0502 27.7928 18.8021 28.153C20.0666 28.7587 21.6838 28.2001 22.5375 27.0811C23.3912 25.962 23.5594 24.4216 23.252 23.0439Z" fill="white"/>
<path d="M10.2832 23.4896C11.735 22.7892 12.4354 21.7067 12.4354 20.3059C12.4354 19.0579 11.9387 18.332 11.0091 18.332C10.3214 18.332 9.83752 18.8032 9.83752 19.5546C9.83752 20.2422 10.3596 20.6752 11.0091 20.6752C11.0473 20.6752 11.0983 20.6752 11.1365 20.6625C11.1237 21.5284 10.6907 22.076 9.79932 22.509L10.2832 23.4896ZM13.8489 23.4896C15.3007 22.7892 16.0011 21.7067 16.0011 20.3059C16.0011 19.0579 15.5045 18.332 14.5748 18.332C13.8872 18.332 13.4032 18.8032 13.4032 19.5546C13.4032 20.2422 13.9254 20.6752 14.5748 20.6752C14.613 20.6752 14.664 20.6752 14.7022 20.6625C14.6894 21.5284 14.2565 22.076 13.365 22.509L13.8489 23.4896Z" fill="#FA3C89"/>
</svg>
