<svg width="28" height="28" viewBox="0 0 28 28" fill="none" xmlns="http://www.w3.org/2000/svg">
<rect width="28" height="28" fill="white"/>
<path d="M21.2428 11.7126L20.7377 10.4859C20.7377 10.4859 21.9111 7.77994 21.8058 7.67465L20.2536 6.12161C20.1431 6.01632 17.4964 7.24822 17.4964 7.24822L16.2757 6.74283C16.2757 6.74283 15.1971 4 15.0497 4H12.8556C12.703 4 11.7032 6.75336 11.7032 6.75336L10.4825 7.25875C10.4825 7.25875 7.77795 6.08476 7.67272 6.19005L6.12049 7.74309C6.01526 7.84838 7.24651 10.5017 7.24651 10.5017L6.74138 11.7231C6.74138 11.7231 4 12.8023 4 12.9497V15.145C4 15.2977 6.75191 16.298 6.75191 16.298L7.25704 17.5193C7.25704 17.5193 6.08366 20.2253 6.18364 20.3306L7.73586 21.8837C7.84109 21.9889 10.493 20.7518 10.493 20.7518L11.719 21.2572C11.719 21.2572 12.7977 24 12.9503 24H15.1444C15.297 24 16.2968 21.2466 16.2968 21.2466L17.5228 20.7413C17.5228 20.7413 20.222 21.9152 20.3273 21.8152L21.8795 20.2622C21.9847 20.1569 20.7482 17.5036 20.7482 17.5036L21.2534 16.2822C21.2534 16.2822 24 15.1977 24 15.0503V12.855C24 12.7023 21.2534 11.7073 21.2534 11.7073L21.2428 11.7126ZM17.1965 14.0079C17.1965 15.7768 15.7601 17.214 13.9921 17.214C12.2242 17.214 10.7877 15.7768 10.7877 14.0079C10.7877 12.239 12.2294 10.8071 13.9921 10.8071C15.7601 10.8071 17.1965 12.2443 17.1965 14.0079Z" stroke="#333333" stroke-width="2" stroke-miterlimit="10"/>
</svg>
