<svg width="24" height="24" viewBox="0 0 24 24" fill="none" xmlns="http://www.w3.org/2000/svg">
<path d="M14.1335 16.446V19.4375L10.198 16.446H3.5V4.5625H20.5V16.446H14.1335Z" stroke="#767676" stroke-width="1.7" stroke-miterlimit="10" stroke-linecap="round" stroke-linejoin="round"/>
<path d="M6.72998 10.381C6.72998 10.9429 7.18048 11.3974 7.74148 11.3974C8.30248 11.3974 8.75298 10.9429 8.75298 10.381C8.75298 9.81902 8.30248 9.3645 7.74148 9.3645C7.18048 9.3645 6.72998 9.81902 6.72998 10.381Z" fill="#767676"/>
<path d="M10.9883 10.381C10.9883 10.9429 11.4388 11.3974 11.9998 11.3974C12.5608 11.3974 13.0113 10.9429 13.0113 10.381C13.0113 9.81902 12.5608 9.3645 11.9998 9.3645C11.4388 9.3645 10.9883 9.81902 10.9883 10.381Z" fill="#767676"/>
<path d="M15.2559 10.381C15.2559 10.9429 15.7064 11.3974 16.2674 11.3974C16.8284 11.3974 17.2789 10.9429 17.2789 10.381C17.2789 9.81902 16.8284 9.3645 16.2674 9.3645C15.7064 9.3645 15.2559 9.81902 15.2559 10.381Z" fill="#767676"/>
</svg>
