<svg width="80" height="80" viewBox="0 0 80 80" fill="none" xmlns="http://www.w3.org/2000/svg">
<rect width="80" height="80" rx="4" fill="white"/>
<path d="M45.351 4.32826C43.976 3.46117 41.782 4.36983 40.0543 6.37128C38.3265 4.36983 36.1325 3.46117 34.7575 4.32826C33.1374 5.34977 33.2689 8.44993 35.0564 11.2472C36.4135 13.3734 38.3325 14.7156 39.8928 14.7928C39.9466 14.7928 40.0004 14.7928 40.0543 14.7928C40.1081 14.7928 40.1619 14.7928 40.2157 14.7928C41.77 14.7215 43.695 13.3793 45.0521 11.2472C46.8396 8.44399 46.9711 5.34977 45.351 4.32826Z" fill="#FA3C89"/>
<path d="M15.0178 16.806C14.1868 19.6033 13.4575 22.8163 13.027 26.3915C12.0287 34.6467 12.9912 41.7141 14.1988 46.8395C14.1988 46.893 14.1988 47.5522 14.8026 47.9442C15.1673 48.1817 15.6455 48.2589 16.1058 48.0867L39.1341 39.4573C39.5944 39.2851 39.8934 38.9169 39.983 38.5071C40.1086 37.9666 39.7439 37.4737 39.6243 37.3074C37.5499 34.4151 36.0314 28.7018 25.0613 18.6352C25.0613 18.6352 22.6401 16.414 18.6287 15.0718C18.2222 14.9352 17.4868 14.6323 16.7037 14.8877C15.6097 15.244 15.1493 16.414 15.0178 16.8" fill="#D78E26"/>
<path d="M64.9837 16.806C65.8147 19.6033 66.544 22.8163 66.9745 26.3915C67.9728 34.6467 67.0103 41.7141 65.8027 46.8395C65.8027 46.893 65.8027 47.5522 65.2049 47.9442C64.8402 48.1817 64.362 48.2589 63.9016 48.0867L40.8734 39.4573C40.4131 39.2851 40.1201 38.9169 40.0245 38.5071C39.8989 37.9666 40.2636 37.4737 40.3832 37.3074C42.4576 34.4151 43.9761 28.7018 54.9402 18.6352C54.9402 18.6352 57.3614 16.414 61.3728 15.0718C61.7794 14.9352 62.5147 14.6323 63.2978 14.8877C64.3919 15.244 64.8462 16.414 64.9837 16.8" fill="#D78E26"/>
<path d="M16.7265 21.2365C15.9553 23.6359 15.2738 26.3975 14.8733 29.4679C13.9466 36.5591 14.8434 42.6288 15.9613 47.0296C15.9613 47.0711 15.9613 47.6413 16.5173 47.9798C16.8521 48.1817 17.3004 48.253 17.7309 48.1045L39.1809 40.6927C39.6113 40.5442 39.8863 40.2294 39.97 39.879C40.0836 39.4158 39.7488 38.9941 39.6352 38.8516C37.7042 36.3691 36.2874 31.4575 26.0705 22.8163C26.0705 22.8163 23.8167 20.9099 20.0803 19.7577C19.7037 19.6389 19.0162 19.3776 18.2868 19.5973C17.2705 19.9002 16.8401 20.9099 16.7205 21.2424" fill="#FBE7C9"/>
<path d="M63.2742 21.2365C64.0454 23.6359 64.7269 26.3975 65.1275 29.4679C66.0541 36.5591 65.1574 42.6288 64.0395 47.0296C64.0395 47.0711 64.0394 47.6413 63.4835 47.9798C63.1487 48.1817 62.7003 48.253 62.2699 48.1045L40.8199 40.6927C40.3894 40.5442 40.1144 40.2294 40.0308 39.879C39.9172 39.4158 40.2519 38.9941 40.3655 38.8516C42.2965 36.3691 43.7134 31.4575 53.9302 22.8163C53.9302 22.8163 56.184 20.9099 59.9204 19.7577C60.2971 19.6389 60.9846 19.3776 61.7139 19.5973C62.7302 19.9002 63.1606 20.9099 63.2802 21.2424" fill="#FBE7C9"/>
<path d="M39.9997 21.0469C32.9453 21.0469 26.2557 24.1411 21.7182 29.504L8.48828 45.1355L39.9997 74.9136L71.5111 45.1355L58.2812 29.504C53.7437 24.1411 47.0481 21.0469 39.9997 21.0469Z" fill="#FAAD30"/>
<path d="M71.5174 45.1353L71.5054 45.1471L70.2739 43.6802C67.8826 42.6646 65.1984 42.0945 62.3647 42.0945C56.6016 42.0945 51.4663 44.4523 48.1125 48.1344C46.062 45.1352 43.1984 43.2704 40.0359 43.2704C36.4967 43.2704 33.3402 45.5985 31.2658 49.245C27.9837 44.9333 22.406 42.0945 16.087 42.0945C14.0962 42.0945 12.1832 42.3796 10.3897 42.9022L8.50054 45.1471L8.48859 45.1353C7.23913 47.5346 7 50.5635 7 53.2598C7 65.8208 21.7723 76.0002 40 76.0002C58.2277 76.0002 73 65.8208 73 53.2598C73 50.5635 72.7609 47.5346 71.5114 45.1353M40 75.1628L40.0239 75.1391L40 75.1628Z" fill="#FCEAE0"/>
<path d="M32.9758 40.7225C32.9758 42.1241 31.8339 43.2584 30.4231 43.2584C29.0122 43.2584 27.8704 42.1241 27.8704 40.7225C27.8704 39.3209 29.0122 38.1865 30.4231 38.1865C31.8339 38.1865 32.9758 39.3209 32.9758 40.7225Z" fill="#1F1311"/>
<path d="M52.136 40.7225C52.136 42.1241 50.9941 43.2584 49.5832 43.2584C48.1724 43.2584 47.0305 42.1241 47.0305 40.7225C47.0305 39.3209 48.1724 38.1865 49.5832 38.1865C50.9941 38.1865 52.136 39.3209 52.136 40.7225Z" fill="#1F1311"/>
<path d="M40.0011 59.8281C40.0011 62.1028 38.1418 63.9498 35.8522 63.9498C33.5625 63.9498 31.6973 62.1028 31.6973 59.8281" stroke="#1F1311" stroke-width="2" stroke-miterlimit="10"/>
<path d="M48.3033 59.8285C48.3033 62.1032 46.4441 63.9502 44.1544 63.9502C41.8647 63.9502 39.9995 62.1032 39.9995 59.8285V53.2422" stroke="#1F1311" stroke-width="2" stroke-miterlimit="10"/>
<path d="M42.7376 51.5197L42.7495 51.496C43.9392 49.447 42.4506 46.8813 40.0653 46.8813H40.0414C37.656 46.8813 36.1675 49.447 37.3571 51.496L37.3691 51.5197C38.5588 53.5687 41.5419 53.5687 42.7316 51.5197" fill="#1F1311"/>
<path d="M27.8649 52.4459C27.8649 53.8178 25.6889 54.9284 23.0046 54.9284C20.3204 54.9284 18.1443 53.8178 18.1443 52.4459C18.1443 51.074 20.3204 49.9634 23.0046 49.9634C25.6889 49.9634 27.8649 51.074 27.8649 52.4459Z" fill="#FA3C89"/>
<path d="M61.8632 52.4459C61.8632 53.8178 59.6871 54.9284 57.0029 54.9284C54.3187 54.9284 52.1426 53.8178 52.1426 52.4459C52.1426 51.074 54.3187 49.9634 57.0029 49.9634C59.6871 49.9634 61.8632 51.074 61.8632 52.4459Z" fill="#FA3C89"/>
</svg>
